# xmcd
#
# Track frame offsets:
#	150
#	18171
#	33404
#	49907
#	64952
#	79801
#	100312
#	114454
#	127765
#	141445
#	153841
#	166815
#	181875
#	196252
#	213313
#	230121
#
# Disc length: 3268 seconds
#
# Revision: 1
# Processed by: cddbd v1.5.2PL0 Copyright (c) Steve Scherf et al.
# Submitted via: audiograbber 1.83.01
#
DISCID=d50cc210
DTITLE=André e Adriano - Pancadão ou Sertanejo
DYEAR=1900
DGENRE=
TTITLE0=Pancadão ou Sertanejo
TTITLE1=Se eu te pego
TTITLE2=Beber, cair e Levantar
TTITLE3=Buzão de Mulher
TTITLE4=Você não vale nada
TTITLE5=Rapadura
TTITLE6=Pensão Alimentícia
TTITLE7=Não vou mais chorar
TTITLE8=Chupa que é de uva
TTITLE9=Deixa eu chorar
TTITLE10=O fora
TTITLE11=Campeão de audiência
TTITLE12=Grudadinho em você
TTITLE13=Vou morar no carro
TTITLE14=A Jiripoca vai piá
TTITLE15=Melo do Gago
EXTD=
EXTT0=
EXTT1=
EXTT2=
EXTT3=
EXTT4=
EXTT5=
EXTT6=
EXTT7=
EXTT8=
EXTT9=
EXTT10=
EXTT11=
EXTT12=
EXTT13=
EXTT14=
EXTT15=
PLAYORDER=
